HIERARCHY
ROOT Hips
{
	OFFSET 0.00000 0.00000 0.00000
	CHANNELS 6 Xposition Yposition Zposition Zrotation Yrotation Xrotation 
	JOINT LHipJoint
	{
		OFFSET 0 0 0
		CHANNELS 3 Zrotation Yrotation Xrotation
		JOINT LeftHip
		{
			OFFSET 1.37590 -1.78394 0.89329
			CHANNELS 3 Zrotation Yrotation Xrotation
			JOINT LeftKnee
			{
				OFFSET 2.47928 -6.81178 0.00000
				CHANNELS 3 Zrotation Yrotation Xrotation
				JOINT LeftAnkle
				{
					OFFSET 2.63345 -7.23535 0.00000
					CHANNELS 3 Zrotation Yrotation Xrotation
					JOINT LeftToe
					{
						OFFSET 0.23938 -0.65768 2.27012
						CHANNELS 3 Zrotation Yrotation Xrotation
						End Site
						{
							OFFSET 0.00000 -0.00000 1.18363
						}
					}
				}
			}
		}
	}
	JOINT RHipJoint
	{
		OFFSET 0 0 0
		CHANNELS 3 Zrotation Yrotation Xrotation
		JOINT RightHip
		{
			OFFSET -1.33617 -1.78394 0.89329
			CHANNELS 3 Zrotation Yrotation Xrotation
			JOINT RightKnee
			{
				OFFSET -2.56922 -7.05888 0.00000
				CHANNELS 3 Zrotation Yrotation Xrotation
				JOINT RightAnkle
				{
					OFFSET -2.56568 -7.04915 0.00000
					CHANNELS 3 Zrotation Yrotation Xrotation
					JOINT RightToe
					{
						OFFSET -0.27533 -0.75646 2.18105
						CHANNELS 3 Zrotation Yrotation Xrotation
						End Site
						{
							OFFSET -0.00000 -0.00000 1.15233
						}
					}
				}
			}
		}
	}
	JOINT lowerback
	{
		OFFSET 0 0 0
		CHANNELS 3 Zrotation Yrotation Xrotation
		JOINT Chest
		{
			OFFSET 0.06190 2.15152 -0.00935
			CHANNELS 3 Zrotation Yrotation Xrotation
			JOINT Chest2
			{
				OFFSET 0.06334 2.15332 0.00872
				CHANNELS 3 Zrotation Yrotation Xrotation
				JOINT lowerneck
				{
					OFFSET 0 0 0
					CHANNELS 3 Zrotation Yrotation Xrotation
					JOINT Neck
					{
						OFFSET -0.04202 1.66908 0.23524
						CHANNELS 3 Zrotation Yrotation Xrotation
						JOINT Head
						{
							OFFSET 0.07510 1.69357 -0.24440
							CHANNELS 3 Zrotation Yrotation Xrotation
							End Site
							{
								OFFSET 0.02556 1.71719 -0.11000
							}
						}
					}
				}
				JOINT LeftCollar
				{
					OFFSET 0 0 0
					CHANNELS 3 Zrotation Yrotation Xrotation
					JOINT LeftShoulder
					{
						OFFSET 3.67168 1.26306 -0.41342
CHANNELS 3 Zrotation Xrotation Yrotation
						JOINT LeftElbow
						{
OFFSET 0 -4.685100 -0.000000
CHANNELS 3 Zrotation Xrotation Yrotation
							JOINT LeftWrist
							{
OFFSET 0 -3.396260 -0.000000
CHANNELS 3 Zrotation Xrotation Yrotation
								JOINT lhand
								{
									OFFSET 0 0 0
CHANNELS 3 Zrotation Xrotation Yrotation
									JOINT LFingers
									{
OFFSET 0 -0.486080 -0.000000
CHANNELS 3 Zrotation Xrotation Yrotation
										End Site
										{
OFFSET 0 -0.391890 -0.000000
										}
									}
								}
								JOINT LThumb
								{
OFFSET 0 0.000000 0.000000
CHANNELS 3 Zrotation Xrotation Yrotation
									End Site
									{
OFFSET 0 -0.397870 0.397870
									}
								}
							}
						}
					}
				}
				JOINT RightCollar
				{
					OFFSET 0 0 0
					CHANNELS 3 Zrotation Yrotation Xrotation
					JOINT RightShoulder
					{
						OFFSET -3.04136 1.42992 -0.76390
CHANNELS 3 Zrotation Xrotation Yrotation
						JOINT RightElbow
						{
OFFSET 0 -5.555760 -0.000000
CHANNELS 3 Zrotation Xrotation Yrotation
							JOINT RightWrist
							{
OFFSET 0 -3.327740 -0.000000
CHANNELS 3 Zrotation Xrotation Yrotation
								JOINT rhand
								{
									OFFSET 0 0 0
CHANNELS 3 Zrotation Xrotation Yrotation
									JOINT RFingers
									{
OFFSET 0 -0.507630 -0.000000
CHANNELS 3 Zrotation Xrotation Yrotation
										End Site
										{
OFFSET 0 -0.409260 -0.000000
										}
									}
								}
								JOINT RThumb
								{
OFFSET 0 0.000000 0.000000
CHANNELS 3 Zrotation Xrotation Yrotation
									End Site
									{
OFFSET 0 -0.415510 0.415510
									}
								}
							}
						}
					}
				}
			}
		}
	}
}
MOTION
Frames: 10
Frame Time: 0.008333333333333333
41.801800 17.817200 6.174900 -91.706100 -85.049300 98.843700 0.000000 0.000000 0.000000 -12.313000 -6.667800 -5.110900 0.303900 3.544600 9.798800 0.175400 3.072500 -9.661300 0.017700 0.859800 2.363100 0.000000 0.000000 0.000000 22.049700 5.636700 -8.403900 -0.620700 -5.041900 14.028100 0.343200 -12.554000 -12.252800 -0.265300 -3.313700 9.153300 3.530000 -1.025500 -4.715600 3.997100 -1.679400 -1.734700 2.040800 -0.883800 0.880200 -7.817800 -4.289300 -19.887000 5.514800 -4.963700 19.570000 2.505800 -2.289800 9.834100 0.000000 -0.000000 0.000000 -3.180700 -0.502100 16.544600 7.028200 -11.965700 0.737500 14.328200 60.682400 -22.422100 0.000000 0.000000 0.000000 -7.125000 0.000000 0.000000 -14.977000 52.427300 2.788800 0.000000 -0.000000 0.000000 -6.938700 0.756700 -1.509600 -8.429000 -14.245900 -1.055200 -16.819000 32.010300 30.736500 0.000000 0.000000 0.000000 7.125000 0.000000 -0.000000 17.266600 60.998500 -6.846700
41.799086 17.817200 6.166863 -90.769399 -85.075514 97.911174 0.000000 0.000000 0.000000 -12.301675 -6.688249 -5.114438 0.304326 3.546851 9.805080 0.179703 2.948480 -9.656446 0.017349 0.850755 2.338175 0.000000 0.000000 0.000000 22.055067 5.586051 -8.446106 -0.625923 -5.062617 14.087103 0.342603 -12.587223 -12.340125 -0.272288 -3.356705 9.273450 3.454197 -1.087800 -4.913715 4.065952 -1.777076 -1.670862 2.143762 -0.931191 1.062213 -7.936983 -4.188632 -19.259656 5.584394 -4.843197 19.248380 2.571646 -2.244898 9.602646 0.000000 0.000000 0.000000 -3.290012 -0.218205 16.702910 7.102632 -12.088040 0.752972 14.331678 60.236949 -22.372515 0.000000 0.000000 0.000000 -7.125000 0.000000 0.000000 -14.951291 52.379494 2.766075 0.000000 0.000000 0.000000 -7.100227 1.363754 -1.563190 -8.626315 -14.562919 -1.104353 -16.858594 31.304859 31.227009 0.000000 0.000000 0.000000 7.125000 0.000000 0.000000 17.601248 61.474990 -7.184190
41.797451 17.817394 6.158117 -89.485939 -85.070229 96.650989 0.000000 0.000000 0.000000 -12.243271 -6.743112 -5.152081 0.305746 3.554974 9.827875 0.180343 2.882401 -9.620603 0.017611 0.854547 2.348567 0.000000 0.000000 0.000000 22.096197 5.547604 -8.504042 -0.631249 -5.083696 14.147367 0.343437 -12.631582 -12.420268 -0.275539 -3.376301 9.328261 3.518969 -1.169696 -4.946026 4.076538 -1.890373 -1.718800 2.111940 -0.988927 1.030555 -8.002955 -4.052813 -18.607650 5.660580 -4.697593 18.971348 2.634519 -2.184821 9.379913 0.000000 0.000000 0.000000 -3.289634 0.212467 16.454802 7.206201 -12.258125 0.774857 14.252521 59.368718 -22.323560 0.000000 0.000000 0.000000 -7.125000 0.000000 0.000000 -15.006679 52.317856 2.753755 0.000000 0.000000 0.000000 -7.131535 2.068639 -1.628126 -8.826437 -14.883351 -1.155221 -16.880167 30.550811 31.163017 0.000000 0.000000 0.000000 7.125000 0.000000 0.000000 17.526839 61.419670 -7.129041
41.795334 17.816854 6.149573 -89.001104 -85.112257 96.190433 0.000000 0.000000 0.000000 -12.260932 -6.778746 -5.167124 0.306426 3.558976 9.839049 0.182228 2.839628 -9.628967 0.016626 0.832824 2.288879 0.000000 0.000000 0.000000 22.077938 5.555881 -8.573541 -0.639291 -5.115312 14.237666 0.340197 -12.654972 -12.542101 -0.278873 -3.396678 9.385086 3.592571 -1.173037 -4.911836 4.006007 -1.896001 -1.636423 1.997202 -0.989434 1.091482 -7.769879 -4.053119 -18.546138 5.377238 -4.690662 18.751936 2.497462 -2.193934 9.278710 0.000000 0.000000 0.000000 -3.192854 0.168518 16.553213 7.242499 -12.317681 0.782587 14.140295 59.076942 -22.445674 0.000000 0.000000 0.000000 -7.125000 0.000000 0.000000 -15.171373 52.417837 2.822890 0.000000 0.000000 0.000000 -7.025572 2.486400 -1.805706 -9.070911 -15.273310 -1.218774 -16.899903 29.778171 31.420548 0.000000 0.000000 0.000000 7.125000 0.000000 0.000000 17.707929 61.669280 -7.310426
41.792351 17.815340 6.139270 -88.256025 -85.120890 95.470804 0.000000 0.000000 0.000000 -12.223981 -6.800859 -5.165313 0.304237 3.546213 9.803296 0.181757 2.797278 -9.587337 0.018518 0.877896 2.412991 0.000000 0.000000 0.000000 22.105707 5.501034 -8.660407 -0.647567 -5.147889 14.330795 0.336148 -12.624816 -12.563918 -0.275295 -3.375059 9.324706 3.663988 -1.150882 -4.943065 3.942075 -1.874895 -1.489764 1.889755 -0.974889 1.255298 -7.846447 -4.054284 -18.854144 5.774169 -4.741061 18.863856 2.639362 -2.174314 9.389007 0.000000 0.000000 0.000000 -3.077295 -0.006110 16.301020 7.288059 -12.392350 0.792264 14.086140 58.545091 -22.383223 0.000000 0.000000 0.000000 -7.125000 0.000000 0.000000 -15.195871 52.347462 2.800988 0.000000 0.000000 0.000000 -6.890191 2.753403 -2.168160 -9.286411 -15.615678 -1.276120 -16.694154 28.866896 31.212252 0.000000 0.000000 0.000000 7.125000 0.000000 0.000000 17.768847 61.420603 -7.231411
41.790886 17.814743 6.127856 -87.100126 -85.096328 94.335086 0.000000 0.000000 0.000000 -12.134622 -6.837990 -5.202691 0.305386 3.552814 9.821870 0.183357 2.733812 -9.574202 0.015800 0.812124 2.232059 0.000000 0.000000 0.000000 22.178061 5.508995 -8.748706 -0.659231 -5.193008 14.460008 0.330142 -12.647770 -12.742428 -0.283959 -3.427255 9.470604 3.765105 -1.160282 -4.907238 3.898058 -1.890366 -1.431879 1.786976 -0.980954 1.290267 -7.699058 -4.047833 -18.757364 5.670299 -4.748726 18.698051 2.577525 -2.178754 9.307804 0.000000 0.000000 0.000000 -2.993589 -0.037022 15.812705 7.372555 -12.530748 0.810517 14.040163 57.843466 -22.672959 0.000000 0.000000 0.000000 -7.125000 0.000000 0.000000 -15.372865 52.622373 2.939813 0.000000 0.000000 0.000000 -6.766470 3.128959 -2.349419 -9.508761 -15.967437 -1.336637 -16.732027 28.012314 31.403465 0.000000 0.000000 0.000000 7.125000 0.000000 0.000000 17.878065 61.611386 -7.358442
41.789554 17.813005 6.117164 -86.325509 -85.134593 93.588478 0.000000 0.000000 0.000000 -12.130740 -6.879490 -5.227688 0.306023 3.556820 9.833037 0.186049 2.664593 -9.581263 0.017146 0.844735 2.321631 0.000000 0.000000 0.000000 22.163524 5.449814 -8.912941 -0.677450 -5.262864 14.659907 0.319318 -12.593305 -12.854020 -0.279778 -3.402067 9.400246 3.830135 -1.128692 -4.863954 3.810708 -1.851773 -1.244338 1.661169 -0.956339 1.454090 -7.517350 -4.112879 -19.274054 5.648662 -4.843287 18.746332 2.522211 -2.201202 9.419314 0.000000 0.000000 0.000000 -2.871040 -0.475707 15.675597 7.408445 -12.589433 0.818336 13.980684 57.548557 -22.412795 0.000000 0.000000 0.000000 -7.125000 0.000000 0.000000 -15.312189 52.358058 2.827296 0.000000 0.000000 0.000000 -6.574688 3.160310 -2.592723 -9.705381 -16.277378 -1.391216 -16.618675 27.217192 31.783448 0.000000 0.000000 0.000000 7.125000 0.000000 0.000000 18.308694 61.942585 -7.685874
41.787819 17.810819 6.106518 -86.123893 -85.242677 93.427492 0.000000 0.000000 0.000000 -12.222446 -6.934995 -5.251773 0.306680 3.560418 9.843054 0.188101 2.651325 -9.615119 0.017420 0.852772 2.343858 0.000000 0.000000 0.000000 22.058754 5.377387 -9.151984 -0.702906 -5.358582 14.934323 0.305155 -12.496899 -12.945599 -0.282178 -3.416551 9.440634 3.776886 -1.151713 -4.936365 3.777034 -1.884016 -1.210728 1.652147 -0.970777 1.529846 -7.605250 -4.028816 -18.948701 5.830315 -4.758558 18.537975 2.613650 -2.153293 9.288983 0.000000 0.000000 0.000000 -2.895623 -0.532866 15.335190 7.487298 -12.718317 0.835560 13.906434 56.964017 -22.507043 0.000000 0.000000 0.000000 -7.125000 0.000000 0.000000 -15.427457 52.437245 2.879729 0.000000 0.000000 0.000000 -6.546368 3.490864 -2.520283 -9.865984 -16.529598 -1.436627 -16.714311 26.487216 31.932805 0.000000 0.000000 0.000000 7.125000 0.000000 0.000000 18.326932 62.107741 -7.765753
41.786206 17.807108 6.093805 -85.982020 -85.206365 93.313355 0.000000 0.000000 0.000000 -12.113280 -6.940782 -5.275531 0.305894 3.555583 9.829655 0.189017 2.607343 -9.601527 0.016134 0.819657 2.252750 0.000000 0.000000 0.000000 22.145799 5.311268 -9.392512 -0.732275 -5.467300 15.246337 0.290453 -12.403371 -13.055380 -0.274350 -3.369004 9.307900 3.794868 -1.173039 -4.826762 3.843967 -1.908102 -1.239765 1.712665 -0.984960 1.440406 -7.427869 -3.985604 -18.597408 5.404119 -4.662977 18.230045 2.451156 -2.146404 9.096771 0.000000 0.000000 0.000000 -3.027379 -0.592137 14.909537 7.561000 -12.838726 0.851956 13.959885 56.394207 -22.538225 0.000000 0.000000 0.000000 -7.125000 0.000000 0.000000 -15.389539 52.476881 2.887606 0.000000 0.000000 0.000000 -6.608305 3.847041 -2.324476 -10.035857 -16.795642 -1.485264 -16.979362 25.996369 32.488101 0.000000 0.000000 0.000000 7.125000 0.000000 0.000000 18.501064 62.698831 -8.099814
41.782101 17.806463 6.075426 -83.949274 -85.261562 91.279240 0.000000 0.000000 0.000000 -12.101614 -7.038757 -5.278213 0.308849 3.572850 9.877871 0.194285 2.450183 -9.602501 0.016258 0.822113 2.259429 0.000000 0.000000 0.000000 22.146900 5.254010 -9.530130 -0.757385 -5.557774 15.506589 0.285619 -12.471633 -13.288469 -0.277472 -3.387896 9.360711 3.628227 -1.231914 -3.956391 3.927212 -1.908311 -1.599112 1.918771 -0.997259 0.592022 -7.683211 -3.967606 -19.071697 5.722910 -4.638929 18.910067 2.607388 -2.116281 9.432141 0.000000 0.000000 0.000000 -3.203307 -0.141039 13.605323 7.737667 -13.126721 0.891633 13.881744 55.083173 -22.693779 0.000000 0.000000 0.000000 -7.125000 0.000000 0.000000 -15.537432 52.614989 2.969656 0.000000 0.000000 0.000000 -6.709472 4.482492 -2.315174 -10.142747 -16.962537 -1.516369 -16.860939 25.359218 33.230540 0.000000 0.000000 0.000000 7.125000 0.000000 0.000000 19.289796 63.363886 -8.760640
